<?xml version="1.0" encoding="UTF-8"?>
<svg id="uuid-a61c0822-bbc2-4462-a791-8dd5bea5a0d6" data-name="Logo-vector" xmlns="http://www.w3.org/2000/svg" viewBox="0 0 299.011 90.553">
  <g id="uuid-93e3cd64-6a5f-4a42-a93b-c967f236572f" data-name="Big Letters">
    <polygon id="uuid-6abff27c-7f28-4c80-afe7-d7b298663ec8" data-name="T" points="38.642 30.671 38.885 72.192 48.721 72.192 48.721 30.671 63.361 30.671 63.362 22.269 23.762 22.272 23.762 30.67 38.642 30.671" fill="#fff" stroke="#fff" stroke-miterlimit="10"/>
    <path id="uuid-18df20e4-b3f4-44e1-9ac3-2b682fa0306c" data-name="R" d="M132.261,21.035h26.056s14.178-.609,14.539,13.504c.35,13.718-13.317,14.551-13.317,14.551,5.722.722,17.111,21.968,17.111,21.968h-12.226c-12.125-22.262-16.852-20.854-16.852-20.854l-5.634-.222-.241,20.884-9.835-.005.399-49.826ZM142.017,29.168v12.889h14.815s6.259-.815,5.815-6.815-5.704-6.074-5.704-6.074h-14.926Z" fill="#fff" stroke="#fff" stroke-miterlimit="10"/>
    <path id="uuid-e6b7f465-4a00-41f3-8817-a05b5c130337" data-name="D" d="M261.381,19.597s19.556-.519,19.778,24.926-18.444,24.926-18.444,24.926h-23.556l.296-49.852h21.926ZM249.381,27.967v33.407h11.407s10,.426,10-16.193c0-17.275-10.67-17.215-10.67-17.215h-10.738Z" fill="#fff" stroke="#fff" stroke-miterlimit="10"/>
  </g>
  <path d="M255.989,4.678c-22.38,0-40.522,18.142-40.522,40.522s18.142,40.522,40.522,40.522,40.522-18.142,40.522-40.522-18.142-40.522-40.522-40.522ZM43.562,2.5C20.884,2.5,2.5,21.314,2.5,44.523s18.384,42.023,41.062,42.023,41.062-18.814,41.062-42.023S66.24,2.5,43.562,2.5ZM151.425,6.408c-22.38,0-40.522,18.277-40.522,40.822s18.142,40.822,40.522,40.822,40.522-18.277,40.522-40.822S173.804,6.408,151.425,6.408Z" fill="none" stroke="#fff" stroke-miterlimit="10" stroke-width="5"/>
</svg>